**ABCDEFGHIJKLMNOPQRSTUVWXYZabcdefghijklmnopqrstuvwxyz**************************
**PARASOLID !"#$%&'()*+,-./:;<=>?@[\]^_`{|}~0123456789**************************
**PART1;
MC=unknown;
MC_MODEL=unknown;
MC_ID=unknown;
OS=unknown;
OS_RELEASE=unknown;
FRU=Parasolid 34.0.176;
APPL=Onshape;
SITE=unknown;
USER=unknown;
FORMAT=text;
GUISE=transmit;
KEY=BTGapi::writeModels_.xmt;
FILE=BTGapi::writeModels_.xmt;
DATE=2021-12-29T04:48:17 (UTC);
**PART2;
SCH=SCH_3400176_34001;
USFLD_SIZE=0;
**PART3;
**END_OF_HEADER*****************************************************************
T51 : TRANSMIT FILE created by modeller version 340017623 SCH_3400176_34001_1300
6231 0 12 36 CCCI7 lattice222 0 CCCI4 mesh1006 0 I8 polyline1008 0 CCCCCCCDI5 ow
ner1040 0 CCCI16 boundary_lattice222 0 CCCI13 boundary_mesh1006 0 I17 boundary_p
olyline1008 0 CCCA16 index_map_offset0 0 1 dA9 index_map82 0 A17 node_id_index_m
ap82 0 A20 schema_embedding_map82 0 A5 child12 0 A14 lowest_node_id0 0 1 dA16 me
sh_offset_data206 0 Z1 417 2 3 0 0 0 0 0 0 0 1e3 1e-8 0 4 5 1 0 1 1 6 0 7 8 0 0
 0 9 10 0 0 0 0 0 0 0 0 81 255 1 2 407 11 1 12 0 0 0 13 70 11 CI9 list_type0 0 1
 uI10 notransmit0 0 1 lCCCDCCDI12 finger_index0 0 1 dI12 finger_block1012 0 CZ3
 0 4 T1 0 0 7 20 1 14 14 13 255 6 195 0 1 0 15 0 0 16 0 50 255 7 321 0 15 17 0 0
 +0 -4450411608039805e-33 .00508 0 1 1224646799147354e-31 0 -1224646799147354e-3
1 1 31 255 8 330 0 10 18 0 0 +0 -780625564189563e-32 -4302351411416505e-33 0 1 1
224646799147354e-31 0 -1224646799147354e-31 1 .0508 19 9 CCCCCCI5 frame230 0 CA5
 owner12 0 Z9 254 0 1 16 0 19 0 V0 16 255 10 298 20 ?21 0 22 8 0 0 1 81 1 20 369
 23 10 0 0 24 25 26 17 255 21 0 27 21 21 0 28 10 0 0 +16 22 293 24 ?29 10 30 18
 0 0 1 81 1 24 368 23 22 0 0 31 20 32 17 29 0 33 29 29 0 34 22 0 0 +16 30 288 25
 ?35 22 36 37 0 0 1 31 18 329 0 22 37 8 0 +0 -.00512975709700369 -49305654723414
e-31 0 1 1224646799147354e-31 0 -1224646799147354e-31 1 .04064 31 37 328 0 30 38
 18 0 +0 -.00254 -461341169839993e-32 0 1 1224646799147354e-31 0 -12246467991473
54e-31 1 .04064 31 38 327 0 36 39 37 0 +0 -.00634228474245901 -507905728232986e-
32 0 1 1224646799147354e-31 0 -1224646799147354e-31 1 .03048 16 36 283 40 ?41 30
 42 38 0 0 1 31 39 326 0 42 43 38 0 +0 -.00254 -461341169839993e-32 0 1 12246467
99147354e-31 0 -1224646799147354e-31 1 .03048 16 42 278 31 ?44 36 45 39 0 0 1 31
 43 325 0 45 46 39 0 +0 -.00516704028274667 -493513134574962e-32 0 1 12246467991
47354e-31 0 -1224646799147354e-31 1 .02032 16 45 273 47 ?48 42 49 43 0 0 1 31 46
 324 0 49 50 43 0 +0 -.00254 -461341169839993e-32 0 1 1224646799147354e-31 0 -12
24646799147354e-31 1 .02032 16 49 268 51 ?52 45 53 46 0 0 1 31 50 323 0 53 54 46
 0 +0 -.00408346046332425 -480243109000199e-32 0 1 1224646799147354e-31 0 -12246
46799147354e-31 1 .01016 16 53 263 55 ?56 49 57 50 0 0 1 31 54 322 0 57 0 50 0 +
0 -.00254 -461341169839993e-32 0 1 1224646799147354e-31 0 -1224646799147354e-31
 1 .01016 16 57 258 58 ?59 53 0 54 0 0 1 81 1 58 372 23 57 0 0 40 60 61 17 59 0
 62 59 59 0 63 57 0 0 +15 255 62 265 0 59 64 0 17 63 0 65 63 63 0 59 57 0 0 -15
 65 260 0 63 66 0 14 255 66 261 67 ?0 64 65 6 68 +0 0 0 64 19 81 1 67 417 69 66
 70 0 71 0 72 14 64 266 71 ?66 73 74 6 75 -0 0 66 73 19 53 255 68 312 0 66 0 75
 0 +0 .0985507236100326 0 .1016 0 1 1224646799147354e-31 0 -1224646799147354e-31
 1 13 19 253 0 0 0 0 0 0 9 15 14 15 306 76 ?77 0 27 6 7 +0 0 77 0 19 81 1 76 408
 69 15 78 0 0 79 80 14 77 301 79 ?81 15 33 6 17 +0 0 81 15 19 15 27 363 0 21 15
 0 81 1 79 409 69 77 82 0 76 83 84 14 81 296 83 ?85 77 86 6 87 +0 0 85 77 19 15
 33 354 0 29 77 88 53 17 320 0 77 87 7 0 +0 .0879881810244978 510008701937181e-3
0 .1015999999999988 0 1 1224646799147354e-31 0 -1224646799147354e-31 1 51 255 87
 319 0 81 89 17 0 -0 .002495598047971725 -399672879527581e-32 0 1 12246467991473
54e-31 .04064 0 -1224646799147354e-31 1 53 89 318 0 85 90 87 0 +0 .0905779381215
019 2584737979205445e-31 .1016 0 1 1224646799147354e-31 0 -1224646799147354e-31
 1 14 85 291 91 ?92 81 93 6 89 +0 0 92 81 19 51 90 317 0 92 94 89 0 +0 .00249559
8047971725 -399672879527581e-32 0 1 1224646799147354e-31 .03048 0 -1224646799147
354e-31 1 14 92 286 95 ?96 85 97 6 90 -0 0 96 85 19 53 94 316 0 96 98 90 0 +0 .0
943802228639619 -90205620750794e-30 .1016 0 1 1224646799147354e-31 0 -1224646799
147354e-31 1 14 96 281 99 ?100 92 101 6 94 +0 0 100 92 19 51 98 315 0 100 102 94
 0 +0 .002495598047971725 -399672879527581e-32 0 1 1224646799147354e-31 .02032 0
 -1224646799147354e-31 1 14 100 276 103 ?73 96 104 6 98 -0 0 73 96 19 53 102 314
 0 73 75 98 0 +0 .0970072631467082 3642919299551295e-32 .1016 0 1 12246467991473
54e-31 0 -1224646799147354e-31 1 14 73 271 105 ?64 100 106 6 102 +0 0 64 100 19
 51 75 313 0 64 68 102 0 +0 .002495598047971725 -399672879527581e-32 0 1 1224646
799147354e-31 .01016 0 -1224646799147354e-31 1 81 1 105 415 69 73 107 0 103 71 1
08 15 106 361 0 56 73 109 17 56 0 106 56 56 0 110 53 0 0 +15 109 270 0 111 73 0
 17 111 0 109 111 111 0 52 49 0 0 -17 52 0 112 52 52 0 111 49 0 0 +15 112 275 0
 52 100 0 17 110 0 74 110 110 0 56 53 0 0 -15 74 360 0 110 64 62 80 7 CCCCCDI12
 legal_owners0 16 1 lCZ1 69 113 114 8015 0 0 0 0 3 5 0 0 0 FFFFTFFFFFFFFFFF2 81
 1 107 401 115 73 116 105 117 118 119 81 1 103 414 69 100 117 0 99 105 120 81 1
 71 416 69 64 118 0 105 67 121 83 255 1 108 .823529411764706 81 1 118 403 115 64
 122 71 107 70 123 83 1 121 .823529411764706 80 1 115 0 124 8001 0 0 0 0 3 5 0 0
 0 FFFFTFTFFFFFFFFF2 81 1 122 374 23 64 0 118 60 125 126 81 1 70 405 115 66 127
 67 118 0 128 83 3 123 .941176470588235 .874509803921569 .67843137254902 81 1 12
7 382 23 66 0 70 116 129 130 83 3 128 .941176470588235 .874509803921569 .6784313
7254902 80 1 23 131 132 9000 0 0 0 0 3 6 0 0 0 FFTFTFTTFFFFFFFF1 81 1 116 381 23
 73 0 107 133 127 134 81 1 129 383 23 1 0 135 127 0 136 82 255 3 130 6 9 2 81 1
 135 384 137 1 129 138 0 0 139 82 3 136 6 0 3 80 1 137 140 141 8038 0 0 0 0 0 0
 0 0 0 TTTTTTTTTTTTTFTF10 81 1 138 385 140 1 135 12 0 0 142 98 255 13 139 70 114
 101 115 110 101 108 32 76 101 110 115 101 80 1 140 143 144 8017 0 0 0 0 0 0 0 0
 0 TTTTTTTTTTTTTFTF3 81 1 12 386 145 1 138 2 0 0 146 84 255 13 142 Fresnel Lense
80 1 145 115 147 8040 0 0 0 0 3 5 0 0 0 TTTFFFFFFFFFFFFF2 83 3 146 .941176470588
235 .874509803921569 .67843137254902 79 255 17 147 SDL/TYSA_COLOUR_279 13 144 SD
L/TYSA_NAME79 14 141 SDL/TYSA_UNAME81 1 133 380 23 96 0 148 149 116 150 82 3 134
 6 8 2 81 1 148 397 115 96 133 99 151 117 152 81 1 149 379 23 85 0 153 154 133 1
55 82 3 150 6 7 2 81 1 153 393 115 85 149 91 156 151 157 81 1 154 378 23 77 0 82
 158 149 159 82 3 155 6 6 2 81 1 82 389 115 77 154 79 78 156 160 81 1 158 377 23
 81 0 156 161 154 162 82 3 159 6 5 2 81 1 156 391 115 81 158 83 82 153 163 81 1
 161 376 23 92 0 151 125 158 164 82 3 162 6 4 2 81 1 151 395 115 92 161 95 153 1
48 165 81 1 125 375 23 100 0 117 122 161 166 82 3 164 6 3 2 81 1 117 399 115 100
 125 103 148 107 167 82 3 166 6 2 2 83 3 167 .941176470588235 .874509803921569 .
67843137254902 81 1 95 412 69 92 151 0 91 99 168 83 3 165 .941176470588235 .8745
09803921569 .67843137254902 81 1 91 411 69 85 153 0 83 95 169 81 1 99 413 69 96
 148 0 95 103 170 83 1 168 .823529411764706 83 1 170 .823529411764706 81 1 83 41
0 69 81 156 0 79 91 171 83 1 169 .823529411764706 83 1 171 .823529411764706 83 3
 163 .941176470588235 .874509803921569 .67843137254902 81 1 78 387 115 15 60 76
 0 82 172 83 3 160 .941176470588235 .874509803921569 .67843137254902 81 1 60 373
 23 15 0 78 58 122 173 83 3 172 .941176470588235 .874509803921569 .6784313725490
2 82 3 173 6 0 2 83 3 157 .941176470588235 .874509803921569 .67843137254902 83 3
 152 .941176470588235 .874509803921569 .67843137254902 79 9 132 BTI/DetId82 3 12
6 6 1 2 79 15 124 SDL/TYSA_COLOUR83 1 120 .823529411764706 83 3 119 .94117647058
8235 .874509803921569 .67843137254902 79 21 114 SDL/TYSA_TRANSLUCENCY15 104 358
 0 174 100 112 17 174 0 104 174 174 0 48 45 0 0 -17 48 0 101 48 48 0 174 45 0 0
 +15 101 359 0 48 96 175 15 175 280 0 176 96 0 17 176 0 175 176 176 0 44 42 0 0
 -17 44 0 177 44 44 0 176 42 0 0 +15 177 285 0 44 92 0 15 97 356 0 178 92 177 17
 178 0 97 178 178 0 41 36 0 0 -17 41 0 93 41 41 0 178 36 0 0 +15 93 357 0 41 85
 179 15 179 290 0 180 85 0 17 180 0 179 180 180 0 35 30 0 0 -17 35 0 86 35 35 0
 180 30 0 0 +15 86 355 0 35 81 181 15 181 295 0 34 81 0 17 34 0 181 34 34 0 29 2
2 0 0 -15 88 300 0 28 77 0 17 28 0 88 28 28 0 21 10 0 0 -83 1 84 .82352941176470
6 83 1 80 .823529411764706 83 1 72 .823529411764706 81 1 40 371 23 36 0 0 25 58
 182 82 3 61 6 8 1 81 1 25 370 23 30 0 0 20 40 183 82 3 182 6 7 1 82 3 183 6 6 1
 81 1 55 364 23 53 0 0 0 47 184 81 1 47 365 23 45 0 0 55 51 185 82 3 184 6 0 1 8
1 1 51 366 23 49 0 0 47 31 186 82 3 185 6 1 1 81 1 31 367 23 42 0 0 51 24 187 82
 3 186 6 2 1 82 3 187 6 3 1 82 3 32 6 4 1 82 3 26 6 5 1 19 16 194 0 1 0 9 6 0 S0
 74 4 CI16 index_map_offset0 0 1 dCCZ20 14 7 0 0 129 135 138 12 70 67 2 0 0 0 0
 0 0 0 0 0 0 0 0 0 80 1 11 69 188 8041 0 0 0 0 3 5 0 0 0 TTTFFFFFFFFFFFFF2 83 1
 13 .823529411764706 79 23 188 SDL/TYSA_TRANSLUCENCY_21 0 
